<?xml version="1.0" encoding="UTF-8"?>
<svg version="1.1" viewBox="0 0 1676 1672" width="419" height="418" xmlns="http://www.w3.org/2000/svg">
<path transform="translate(0)" d="m0 0h1676v1672h-1676z" fill="#FEFEFE"/>
<path transform="translate(285,299)" d="m0 0h2l7 27 9 29 7 20 13 33 12 26 9 19 13 23 12 20 8 12 11 16 12 16 13 16 11 12 7 8 26 26 8 7 14 12 18 14 18 13 15 10 20 12 25 14 35 17 27 11 29 11v218l-9 4-36 14-25 11-16 8-25 13-17 10-30 20-19 14-10 8-13 11-13 12-17 16-22 24-11 14-14 18-8 12-17 26-13 23-12 23-14 31-14 37-9 28-9 33-4 14-4-2-23-23-7-8-12-14-14-17-12-16-13-18-16-24-12-19-14-25-14-26-12-25-13-30-13-35-13-40-10-38-8-38-7-49-3-35-1-17v-73l3-40 5-38 5-29 9-38 9-33 14-41 12-30 12-27 12-25 10-19 13-23 12-20 11-17 29-44 7-9 15-20 9-10 7-8 11-12 10-10z" fill="#FE8303"/>
<path transform="translate(1387,295)" d="m0 0 6 5 7 8 13 14 9 11 9 10 22 28 13 18 14 20 15 23 14 24 10 18 12 23 11 24 12 29 10 28 11 33 13 52 7 38 6 44 4 49 1 27v30l-2 39-3 35-5 36-5 29-7 31-8 31-14 43-8 21-13 31-17 35-14 26-12 20-13 20-11 16-14 19-13 17-14 17-12 14-12 13-7 8-13 13h-2l-4-14-8-30-10-31-9-25-11-26-7-16-20-38-14-22-10-15-13-18-13-16-9-11-7-7-7-8-23-23-2-1v-2l-4-2-12-11-10-8-18-14-19-13-20-13-26-15-27-14-32-14-26-10-15-6-1-1v-218l20-8 27-11 33-15 21-11 21-12 24-15 20-14 18-14 11-9 10-9 8-7 32-32 9-11 12-14 9-12 10-14 13-20 9-15 12-22 12-24 12-28 10-27 10-30 11-42z" fill="#FE8303"/>
<path transform="translate(795,64)" d="m0 0h79l33 2 47 5 33 5 42 9 23 6 22 7 19 7 17 7 2 3 4 20 4 32 1 13v23l-3 30-5 27-7 25-8 21-12 25-10 17-10 14-13 16-11 12-5 6-8 7-10 9-17 13-15 10-18 10-21 10-19 7-30 8-25 4-21 2h-25l-24-2-25-4-21-5-29-10-26-12-17-10-16-11-13-10-13-12-7-6v-2h-2v-2h-2l-7-8-10-12-11-15-9-14-12-22-11-25-9-28-6-29-3-23-1-12v-29l2-22 4-27 3-9 16-8 32-12 31-9 30-7 39-7 41-5 22-2z" fill="#FE8303"/>
<path transform="translate(814,1188)" d="m0 0h45l36 5 23 6 28 10 29 14 17 10 17 12 13 11 8 7 13 12 7 8 11 13 13 18 12 20 8 16 7 16 10 30 5 23 4 29 1 12v25l-3 32-5 27-2 7-16 8-36 12-29 8-38 8-38 6-36 4-26 2-23 1h-57l-37-2-36-3-44-6-36-7-32-8-35-11-20-8-8-5-6-34-3-24v-40l3-25 5-26 9-29 10-24 12-23 12-18 8-11 11-13 11-12 10-10 11-9 12-10 21-14 16-9 12-6 20-8 24-8 28-6z" fill="#FE8303"/>
</svg>
