<?xml version="1.0" standalone="no"?>
<!DOCTYPE svg PUBLIC "-//W3C//DTD SVG 20010904//EN"
 "http://www.w3.org/TR/2001/REC-SVG-20010904/DTD/svg10.dtd">
<svg version="1.0" xmlns="http://www.w3.org/2000/svg"
 width="1280.000000pt" height="1280.000000pt" viewBox="0 0 1280.000000 1280.000000"
 preserveAspectRatio="xMidYMid meet">

<g transform="translate(0.000000,1280.000000) scale(0.100000,-0.100000)"
fill="#000000" stroke="none">
<path d="M5947 12390 c-66 -17 -116 -49 -198 -127 -55 -52 -82 -87 -90 -113
-8 -28 -9 -691 -1 -2531 6 -1372 7 -2497 4 -2500 -4 -3 -68 -23 -142 -43 -74
-21 -175 -51 -225 -66 -49 -15 -173 -54 -275 -85 -102 -31 -268 -83 -370 -115
-102 -32 -313 -97 -470 -145 -157 -48 -341 -104 -410 -125 -69 -21 -187 -57
-264 -79 l-138 -41 -48 26 -47 26 -7 70 c-18 196 -40 1497 -61 3533 -14 1475
-9 1377 -82 1484 -54 77 -136 135 -241 168 -79 25 -89 26 -146 14 -78 -15
-189 -68 -243 -115 -25 -22 -56 -64 -75 -104 l-33 -67 -8 -275 c-7 -286 1
-3727 12 -4585 l6 -490 -90 -23 c-49 -13 -173 -49 -275 -82 -102 -32 -275 -86
-386 -119 -423 -127 -633 -212 -754 -306 -88 -68 -184 -175 -216 -240 -26 -55
-29 -69 -27 -155 0 -52 13 -180 27 -285 14 -104 44 -332 66 -505 22 -173 48
-342 58 -376 49 -157 124 -262 423 -589 90 -99 326 -360 524 -579 198 -219
452 -501 565 -625 113 -125 306 -339 430 -476 705 -781 812 -886 997 -979 169
-85 422 -129 604 -106 204 26 349 73 907 296 629 252 1520 612 2202 889 146
59 459 185 695 280 460 186 1543 624 1815 735 91 37 350 142 575 233 1070 431
1214 492 1331 557 152 86 215 177 254 365 26 125 82 514 114 790 39 337 40
346 21 412 -51 178 -177 281 -1118 910 -116 78 -270 182 -342 231 -71 49 -141
95 -155 102 -14 7 -74 48 -135 91 -60 42 -141 94 -180 115 -91 50 -151 89
-845 549 -322 214 -647 426 -723 471 -216 130 -338 164 -582 164 -156 0 -278
-32 -1125 -298 -140 -44 -301 -92 -357 -107 l-101 -27 -45 30 c-44 31 -44 32
-51 99 -7 83 -23 970 -31 1738 -18 1856 -27 2603 -34 2705 -10 147 -34 210
-107 289 -72 78 -144 110 -256 116 -46 2 -100 0 -121 -5z m188 -129 c22 -10
59 -35 82 -56 56 -48 70 -98 83 -285 14 -214 15 -204 -24 -222 -60 -29 -148
-40 -289 -37 -192 5 -182 -7 -182 242 1 106 4 204 8 220 9 35 71 103 111 124
72 37 150 42 211 14z m170 -631 c0 -8 -15 -24 -33 -36 -64 -44 -358 -47 -439
-5 -64 32 -56 46 20 35 98 -14 334 -8 387 9 51 17 65 17 65 -3z m-3420 -34
c28 -12 69 -42 92 -65 69 -69 74 -95 71 -336 l-3 -209 -50 -20 c-43 -17 -74
-20 -215 -20 -148 0 -170 2 -212 21 l-48 22 -2 103 c-6 306 6 370 87 447 30
28 69 58 87 66 51 22 135 19 193 -9z m3010 -103 c80 -17 266 -13 352 8 57 13
73 8 57 -19 -22 -35 -65 -45 -209 -50 -149 -5 -249 11 -287 45 -24 21 -24 48
0 38 9 -4 49 -14 87 -22z m408 -155 c3 -46 2 -366 -3 -713 -5 -346 -9 -791
-10 -987 l0 -356 -37 -14 c-26 -9 -91 -13 -200 -13 l-163 0 -27 28 c-27 26
-28 33 -35 150 -10 190 -22 1813 -14 1899 l8 78 56 -8 c77 -10 310 -6 347 6
69 23 71 20 78 -70z m-3688 -429 c96 -28 203 -28 337 1 60 13 111 20 114 17
11 -11 -18 -39 -56 -55 -48 -20 -324 -29 -402 -13 -79 17 -145 71 -85 71 12 0
54 -9 92 -21z m225 -109 c0 -5 -22 -10 -50 -10 -27 0 -50 5 -50 10 0 6 23 10
50 10 28 0 50 -4 50 -10z m-235 -27 c72 -19 303 -12 400 11 68 17 86 9 52 -22
-42 -40 -134 -55 -307 -50 -158 5 -209 15 -238 51 -17 20 -6 41 17 32 9 -4 43
-14 76 -22z m220 -98 c77 0 156 4 176 8 l36 9 6 -69 c11 -115 20 -1518 12
-1875 l-7 -336 -69 -22 c-60 -20 -84 -22 -201 -18 -106 4 -143 9 -179 25 l-46
21 -7 163 c-17 388 -33 2059 -20 2093 5 13 18 14 82 8 43 -4 140 -7 217 -7z
m3097 -1455 c104 -25 151 -25 269 0 51 10 95 17 98 14 8 -8 20 -249 35 -679
12 -357 12 -412 -1 -426 -38 -43 -281 -73 -396 -49 -32 6 -69 22 -83 34 -26
22 -26 23 -31 216 -3 107 0 342 6 523 8 233 8 333 1 347 -11 21 -6 40 10 40 5
0 46 -9 92 -20z m-2857 -860 c10 -17 -13 -47 -47 -61 -24 -10 -81 -14 -208
-14 -185 0 -232 8 -266 47 l-19 21 55 -6 c30 -3 99 -10 152 -17 102 -11 188
-4 264 24 48 18 61 19 69 6z m-439 -95 c31 -8 102 -17 158 -21 84 -5 114 -3
183 15 45 12 84 21 86 21 3 0 8 -37 11 -82 9 -117 47 -1010 44 -1012 -2 -1
-36 -17 -76 -35 l-72 -33 -158 4 c-148 4 -161 6 -221 33 l-64 29 6 430 c8 486
19 666 42 666 2 0 30 -7 61 -15z m3723 -188 c26 -32 -75 -79 -210 -98 -71 -10
-96 -10 -162 4 -97 20 -187 60 -187 83 0 12 6 15 23 10 12 -3 58 -13 102 -22
102 -21 274 -14 355 15 68 24 65 24 79 8z m-21 -339 l2 -245 -58 -21 c-79 -29
-145 -75 -195 -135 -99 -118 -119 -136 -173 -157 -67 -25 -74 -25 -74 -1 0 10
-7 32 -15 47 -8 16 -15 37 -15 47 0 16 5 15 45 -9 37 -21 45 -23 45 -10 0 9
-18 36 -40 60 l-40 43 1 219 c1 121 4 257 7 304 l7 85 35 -3 c19 -1 98 -5 175
-8 120 -4 149 -2 205 14 36 11 70 19 75 17 6 -1 11 -94 13 -247z m2106 -127
c100 -36 242 -116 439 -249 103 -70 223 -148 265 -173 42 -26 96 -65 119 -87
24 -23 64 -53 90 -68 74 -42 272 -167 443 -280 85 -56 174 -111 198 -123 23
-12 58 -39 77 -60 19 -20 58 -50 87 -66 29 -16 93 -54 142 -84 49 -31 115 -72
147 -91 31 -19 98 -64 148 -100 191 -137 305 -216 340 -234 20 -10 51 -32 69
-47 18 -16 55 -40 82 -54 27 -14 54 -34 60 -46 7 -11 27 -27 45 -35 19 -7 37
-19 41 -25 3 -6 23 -19 43 -28 54 -25 121 -66 276 -169 186 -125 259 -181 277
-213 10 -16 31 -32 54 -39 81 -26 174 -152 174 -235 0 -42 -5 -52 -36 -82 -62
-58 -209 -123 -729 -321 -275 -105 -563 -215 -640 -245 -77 -30 -241 -94 -365
-141 -124 -48 -252 -98 -285 -111 -63 -25 -478 -184 -730 -280 -82 -32 -213
-82 -290 -112 -77 -30 -221 -86 -320 -123 -184 -70 -561 -214 -785 -300 -69
-26 -280 -107 -470 -179 -190 -72 -361 -138 -380 -146 -19 -8 -199 -77 -400
-154 -680 -259 -1055 -403 -1165 -446 -298 -117 -637 -245 -780 -294 l-80 -28
1 40 c1 22 7 43 15 47 20 12 877 340 1289 495 550 206 1110 420 1505 573 198
77 419 161 490 186 191 68 211 79 225 120 17 53 -6 101 -58 117 -35 10 -49 8
-123 -16 -110 -36 -927 -343 -1864 -699 -725 -276 -751 -285 -765 -266 -29 37
-62 41 -118 15 -51 -23 -70 -53 -64 -95 2 -10 -15 -21 -49 -34 -52 -18 -53
-18 -68 2 -54 70 -160 31 -165 -60 -1 -27 -8 -32 -101 -69 -55 -21 -103 -39
-108 -39 -4 0 -16 9 -26 19 -30 30 -81 36 -127 16 -21 -10 -52 -19 -69 -21
-93 -13 -164 -85 -143 -146 11 -32 67 -63 99 -55 13 4 20 -5 29 -42 6 -25 15
-62 20 -80 5 -19 7 -37 5 -40 -11 -10 -115 -20 -224 -20 -113 -1 -113 -1 -107
22 4 12 10 48 13 79 5 55 7 58 40 69 78 25 76 133 -2 159 -50 17 -111 -1 -127
-36 -9 -18 -16 -23 -32 -18 -48 15 -195 95 -251 136 -134 99 -1383 1376 -2601
2660 -103 108 -158 183 -151 203 11 27 139 108 232 146 53 21 243 86 423 145
676 218 846 277 870 301 13 13 64 37 115 53 51 17 115 43 144 59 l52 29 38
-19 c33 -16 47 -17 98 -9 57 9 210 55 445 134 105 35 282 90 815 252 597 183
1402 436 1474 465 42 16 85 41 97 55 15 18 46 33 109 50 145 41 214 85 235
150 21 64 183 177 228 159 14 -5 9 -11 -21 -26 -76 -40 -82 -135 -11 -165 48
-20 59 -19 211 30 76 25 217 68 313 96 220 66 799 249 820 260 20 11 184 53
329 86 139 31 341 29 435 -5z m-5314 -484 c0 -41 -100 -82 -220 -92 -98 -8
-270 8 -321 29 -35 15 -76 52 -67 61 2 3 40 -5 84 -17 65 -18 104 -22 224 -22
132 0 151 2 215 27 82 31 85 31 85 14z m-20 -344 c0 -277 0 -278 -96 -318 -85
-35 -160 -89 -199 -145 -16 -23 -44 -60 -60 -83 -32 -45 -98 -84 -159 -94 -35
-6 -36 -5 -36 28 0 19 -7 43 -15 53 -15 20 -21 56 -9 56 3 0 24 -14 45 -31
l39 -31 0 25 c0 14 -11 38 -24 54 -12 15 -28 38 -34 49 -23 44 -44 630 -23
663 9 14 29 13 136 -9 85 -17 284 -8 355 17 49 17 56 17 68 4 9 -11 12 -74 12
-238z m25 -452 c-12 -11 -147 -52 -153 -47 -2 2 16 16 40 30 41 24 135 39 113
17z m-1993 -1462 c81 -86 263 -275 405 -420 142 -146 366 -377 498 -514 132
-138 309 -322 395 -410 86 -88 334 -344 552 -570 379 -392 556 -563 650 -627
47 -32 197 -109 247 -126 29 -10 31 -15 31 -57 0 -51 8 -49 -94 -23 -169 42
-306 165 -986 883 -319 337 -657 694 -1065 1125 -159 168 -409 431 -555 585
-304 319 -340 363 -340 408 l1 32 57 -65 c31 -36 123 -135 204 -221z m25 -316
c170 -181 466 -494 658 -698 191 -203 441 -467 554 -585 113 -118 369 -386
567 -595 450 -473 504 -525 625 -598 115 -69 210 -102 342 -116 124 -14 403
-14 503 0 200 28 497 128 1171 394 147 59 333 132 413 162 80 30 219 83 310
118 91 35 309 118 485 185 176 67 417 159 535 205 118 46 312 120 430 165 322
123 774 297 870 335 47 19 231 90 410 158 731 280 1332 511 1450 557 69 27
193 74 275 105 555 209 1107 425 1204 471 63 30 116 54 117 54 10 0 1 -113
-21 -275 -14 -99 -34 -256 -45 -350 -37 -310 -48 -347 -117 -404 -106 -88
-314 -174 -3328 -1386 -456 -183 -895 -361 -975 -395 -80 -34 -464 -190 -855
-347 -390 -157 -908 -365 -1150 -463 -667 -269 -940 -371 -1128 -423 -70 -19
-105 -22 -232 -21 -360 4 -495 78 -864 479 -529 573 -1671 1842 -2160 2400
-200 228 -254 309 -267 401 l-6 39 79 -80 c43 -44 326 -352 629 -685 304 -333
643 -704 754 -825 111 -121 315 -344 454 -495 629 -689 676 -736 821 -808 72
-36 184 -76 192 -69 5 5 -26 23 -189 105 -134 68 -192 128 -1444 1493 -1130
1232 -1220 1333 -1296 1446 -37 53 -43 88 -11 61 33 -27 494 -522 813 -873 90
-99 232 -254 316 -345 83 -91 256 -280 385 -421 732 -799 1091 -1183 1161
-1239 63 -50 210 -127 307 -160 92 -31 272 -44 424 -31 213 18 205 15 1812
654 864 343 1456 577 1745 692 682 270 944 374 1170 465 140 56 453 181 695
277 1870 743 2117 845 2184 903 36 31 19 34 -36 7 -109 -56 -1209 -501 -2528
-1024 -159 -63 -688 -274 -1175 -468 -487 -194 -932 -371 -990 -393 -58 -22
-258 -101 -445 -175 -187 -74 -416 -165 -510 -202 -93 -37 -426 -169 -740
-295 -961 -383 -1046 -410 -1318 -413 -111 -2 -158 2 -217 17 -97 25 -213 74
-276 116 -68 47 -362 342 -670 675 -450 487 -475 514 -588 639 -146 161 -708
774 -827 902 -52 56 -175 189 -275 295 -210 225 -323 352 -382 431 -37 48 -45
68 -62 154 -32 172 -60 424 -47 424 2 0 143 -147 314 -327z"/>
<path d="M5916 9151 c-19 -7 -19 -8 0 -15 37 -14 247 -19 279 -6 28 11 28 13
10 20 -25 11 -263 11 -289 1z"/>
<path d="M11865 5231 c-41 -19 -77 -60 -95 -106 -24 -62 44 -128 108 -104 37
14 92 67 108 106 19 45 2 91 -42 109 -40 17 -31 17 -79 -5z"/>
<path d="M11275 4971 c-91 -33 -136 -60 -150 -93 -18 -45 -2 -86 42 -105 31
-12 41 -12 86 3 94 31 144 61 155 94 16 45 -2 89 -44 106 -18 8 -35 14 -36 13
-2 0 -26 -8 -53 -18z"/>
<path d="M10944 4836 c-37 -17 -54 -32 -61 -52 -15 -45 3 -83 50 -104 35 -16
44 -17 78 -5 62 22 76 33 87 65 16 45 -2 89 -44 106 -44 18 -50 18 -110 -10z"/>
<path d="M10561 4678 c-33 -16 -48 -32 -63 -64 -17 -39 -17 -47 -4 -78 10 -25
24 -37 50 -46 32 -10 42 -9 82 11 89 43 106 153 28 185 -43 18 -41 18 -93 -8z"/>
<path d="M10260 4585 c-30 -13 -91 -38 -135 -55 -166 -65 -211 -111 -181 -185
21 -50 65 -68 119 -49 21 7 50 22 65 32 26 19 107 58 205 100 36 16 51 30 62
56 20 48 4 93 -41 112 -40 17 -28 18 -94 -11z"/>
<path d="M9724 4381 c-23 -10 -44 -24 -48 -30 -4 -5 -13 -8 -20 -5 -8 3 -43
-6 -78 -21 -34 -14 -126 -49 -203 -77 -77 -27 -191 -74 -253 -103 -96 -46
-114 -59 -126 -87 -21 -49 -2 -89 50 -107 40 -14 42 -13 180 44 76 31 177 71
224 87 47 16 92 35 100 42 8 8 38 21 65 30 28 9 61 24 74 33 13 9 37 17 52 18
42 4 92 37 111 74 23 45 7 88 -38 107 -42 17 -40 17 -90 -5z"/>
<path d="M8750 4014 c-112 -38 -198 -82 -217 -111 -35 -54 -12 -131 45 -151
27 -9 45 -3 182 65 129 63 154 80 165 106 18 44 2 85 -41 103 -43 18 -46 18
-134 -12z"/>
<path d="M8339 3855 c-136 -50 -195 -118 -165 -189 21 -51 70 -64 133 -36 83
36 145 82 159 116 19 46 2 92 -42 110 -39 16 -39 16 -85 -1z"/>
<path d="M11940 4113 c-8 -3 -118 -50 -245 -103 -244 -104 -1046 -425 -2235
-895 -399 -158 -1213 -482 -1810 -720 -1850 -738 -2769 -1101 -2920 -1153 -80
-28 -179 -62 -220 -76 l-75 -26 55 6 c118 12 490 152 1885 709 132 53 463 184
735 292 272 108 927 368 1455 578 1854 738 2603 1035 2895 1150 313 123 466
193 495 225 18 20 14 23 -15 13z"/>
</g>
</svg>
