<?xml version="1.0" encoding="UTF-8"?>
<svg xmlns="http://www.w3.org/2000/svg" xmlns:xlink="http://www.w3.org/1999/xlink" width="960px" height="960px" viewBox="0 0 960 960" version="1.1">
<g id="surface1">
<path style=" stroke:none;fill-rule:nonzero;fill:rgb(0%,0%,0%);fill-opacity:1;" d="M 420 40.921875 C 412.6875 43.148438 406.3125 48.675781 402.9375 55.71875 L 400.78125 60.179688 L 400.96875 115.898438 C 401.15625 146.566406 401.53125 189.628906 401.8125 211.738281 C 402.09375 233.757812 401.90625 266.925781 401.34375 285.289062 C 400.78125 303.65625 400.3125 343.683594 400.125 374.175781 L 399.84375 429.628906 L 381.09375 435.957031 C 370.78125 439.433594 336.84375 450.757812 305.625 461.277344 L 248.90625 480.355469 L 244.59375 476.433594 C 242.15625 474.382812 238.6875 472.066406 236.90625 471.261719 L 233.625 470.015625 L 233.0625 429.984375 C 232.78125 408.054688 232.21875 323.894531 231.9375 242.941406 C 231.375 101.8125 231.28125 95.660156 229.59375 91.382812 C 227.53125 86.210938 222.5625 80.949219 217.125 78.1875 C 211.78125 75.511719 201.65625 75.511719 196.40625 78.1875 C 191.25 80.773438 186.09375 86.03125 183.5625 91.382812 L 181.5 95.839844 L 181.6875 213.96875 C 181.78125 278.960938 181.5 367.578125 181.125 410.996094 C 180.75 454.414062 180.75 492.660156 181.125 496.136719 C 181.5 499.523438 181.6875 502.464844 181.5 502.554688 C 181.3125 502.734375 159.9375 510.132812 134.0625 518.960938 C 83.25 536.253906 74.8125 539.554688 66 545.882812 C 55.59375 553.460938 52.03125 560.773438 52.96875 572.808594 C 56.34375 615.15625 61.96875 665.617188 63.84375 670.253906 C 64.875 672.75 63.1875 670.789062 103.21875 717.234375 C 254.4375 892.867188 267.84375 908.292969 276 915.335938 C 287.0625 924.960938 304.59375 930.667969 319.875 929.597656 C 334.21875 928.527344 333.09375 928.976562 401.25 898.21875 C 421.59375 889.035156 451.125 875.75 466.875 868.796875 C 482.625 861.753906 504.09375 852.125 514.6875 847.398438 C 525.28125 842.585938 556.03125 828.945312 583.125 817.085938 C 610.21875 805.140625 646.875 788.914062 664.6875 780.980469 C 682.5 773.046875 712.21875 759.761719 730.78125 751.558594 C 853.5 697.085938 868.125 690.222656 876 683.089844 C 882.9375 676.761719 885.5625 667.308594 889.21875 634.324219 C 890.0625 626.925781 892.03125 612.480469 893.625 602.230469 C 895.40625 590.550781 896.25 581.902344 895.875 579.136719 C 895.21875 573.878906 892.125 568.707031 886.6875 563.804688 C 877.6875 555.78125 803.8125 503.269531 749.53125 466.449219 C 728.625 452.363281 686.53125 423.296875 652.03125 399.226562 C 627 381.84375 614.90625 374.441406 607.96875 372.480469 C 602.34375 370.875 591.46875 370.164062 584.34375 370.964844 C 573.9375 372.035156 567.375 373.90625 535.78125 384.515625 C 480.46875 403.0625 464.4375 408.320312 463.5 408.320312 C 462.9375 408.320312 461.53125 407.339844 460.40625 406.179688 C 459.1875 404.933594 457.03125 403.507812 455.53125 402.972656 L 452.8125 401.902344 L 452.8125 377.652344 C 452.8125 364.367188 452.34375 341.457031 451.875 326.746094 C 451.3125 312.035156 450.84375 246.0625 450.75 180.089844 C 450.65625 65.617188 450.65625 60 448.96875 55.71875 C 446.90625 50.550781 441.9375 45.199219 436.5 42.613281 C 432.46875 40.652344 423.75 39.761719 420 40.921875 Z M 437.625 45.199219 C 443.71875 48.765625 447.65625 54.652344 448.96875 62.140625 C 449.625 65.527344 449.90625 74.886719 449.8125 83.359375 L 449.53125 98.515625 L 443.90625 100.742188 C 439.125 102.613281 436.78125 102.882812 428.4375 102.882812 C 418.125 102.882812 410.90625 101.097656 404.71875 96.910156 L 402.09375 95.214844 L 402.375 77.652344 C 402.65625 60.089844 402.65625 60 405.46875 54.828125 C 410.34375 45.914062 418.03125 41.546875 427.78125 42.257812 C 431.71875 42.527344 434.53125 43.417969 437.625 45.199219 Z M 218.25 80.863281 C 224.34375 84.429688 228.28125 90.3125 229.59375 97.800781 C 230.25 101.1875 230.53125 110.550781 230.4375 119.019531 L 230.15625 134.175781 L 224.53125 136.402344 C 219.75 138.277344 217.40625 138.542969 209.0625 138.542969 C 198.75 138.542969 191.53125 136.761719 185.34375 132.570312 L 182.71875 130.875 L 183 113.3125 C 183.28125 96.285156 183.375 95.75 185.90625 90.757812 C 188.71875 85.230469 193.875 80.773438 199.5 78.722656 C 204.84375 76.851562 213 77.742188 218.25 80.863281 Z M 420.09375 104.398438 C 427.5 105.558594 437.53125 104.753906 443.90625 102.4375 C 449.90625 100.296875 450 100.296875 450 103.328125 C 450 106.804688 446.71875 109.125 439.03125 111.441406 C 428.625 114.472656 415.5 113.402344 405.9375 108.765625 C 402.375 106.984375 402.1875 106.804688 402.1875 102.527344 L 402.1875 98.15625 L 408.1875 100.832031 C 411.46875 102.257812 416.8125 103.863281 420.09375 104.398438 Z M 449.0625 119.644531 C 448.96875 125.171875 448.78125 160.386719 448.6875 197.917969 L 448.59375 266.121094 L 442.3125 269.152344 C 433.6875 273.253906 423.09375 273.96875 413.71875 271.113281 C 402.75 267.726562 403.875 274.234375 403.5 214.234375 C 403.3125 185.4375 402.9375 150.042969 402.75 135.691406 C 402.375 111.441406 402.46875 109.570312 403.875 110.105469 C 417 114.917969 425.90625 115.898438 436.03125 113.757812 C 439.875 112.957031 444.28125 111.53125 445.78125 110.640625 C 447.375 109.746094 448.78125 109.125 448.96875 109.300781 C 449.15625 109.480469 449.15625 114.117188 449.0625 119.644531 Z M 201.09375 139.96875 C 208.875 141.21875 218.0625 140.417969 224.53125 138.097656 C 230.53125 135.957031 230.625 135.957031 230.625 138.988281 C 230.625 142.464844 227.34375 144.785156 219.65625 147.101562 C 209.25 150.132812 196.125 149.0625 186.5625 144.429688 C 183 142.644531 182.8125 142.464844 182.8125 138.1875 L 182.8125 133.820312 L 188.71875 136.402344 C 191.90625 137.832031 197.53125 139.433594 201.09375 139.96875 Z M 229.96875 232.867188 L 229.78125 320.503906 L 227.25 322.464844 C 225.84375 323.445312 222.5625 324.960938 219.9375 325.765625 C 208.78125 329.0625 198.5625 328.351562 188.71875 323.804688 L 183.75 321.484375 L 183.75 244.726562 C 183.75 202.554688 183.46875 162.882812 183.09375 156.554688 C 182.53125 145.496094 182.625 145.050781 184.3125 145.675781 C 197.625 150.578125 206.4375 151.558594 216.65625 149.421875 C 220.5 148.617188 224.90625 147.191406 226.40625 146.300781 C 228 145.410156 229.40625 144.785156 229.6875 144.875 C 229.96875 145.050781 230.0625 184.636719 229.96875 232.867188 Z M 417.84375 273.789062 C 427.03125 275.484375 434.90625 274.144531 447.9375 268.617188 C 448.78125 268.261719 449.0625 270.847656 449.0625 280.03125 C 449.0625 286.628906 449.53125 305.347656 450.09375 321.664062 L 451.03125 351.351562 L 448.875 353.136719 C 445.5 355.898438 439.03125 358.304688 432 359.464844 C 423.75 360.800781 414.65625 359.464844 406.78125 355.632812 L 401.0625 352.957031 L 401.625 336.285156 C 401.90625 327.101562 402.46875 308.203125 402.75 294.117188 L 403.3125 268.707031 L 407.90625 270.757812 C 410.4375 271.917969 414.9375 273.253906 417.84375 273.789062 Z M 189.9375 326.03125 C 195 328.351562 196.40625 328.527344 206.71875 328.527344 C 217.03125 328.527344 218.4375 328.351562 223.5 326.03125 C 226.5 324.695312 229.125 323.714844 229.3125 323.894531 C 229.5 323.980469 230.0625 344.578125 230.71875 369.539062 L 231.75 414.917969 L 229.125 416.96875 C 227.625 418.128906 223.6875 419.820312 220.40625 420.800781 C 208.96875 424.191406 195.46875 422.496094 186.1875 416.433594 L 181.78125 413.492188 L 182.34375 397.800781 C 182.625 389.152344 183.09375 368.914062 183.375 352.777344 C 183.75 336.730469 184.03125 323.625 184.21875 323.625 C 184.3125 323.625 186.9375 324.695312 189.9375 326.03125 Z M 450.9375 376.851562 L 450.9375 399.851562 L 446.34375 399.582031 C 436.125 398.871094 426.5625 406.984375 425.0625 417.683594 L 424.40625 421.605469 L 414 424.902344 C 408.28125 426.6875 403.03125 428.378906 402.46875 428.648438 C 401.53125 428.914062 401.25 421.25 401.25 391.917969 L 401.25 354.828125 L 405.28125 356.703125 C 417.75 362.851562 437.25 362.316406 447.65625 355.71875 C 449.25 354.738281 450.5625 353.9375 450.75 353.9375 C 450.84375 353.9375 450.9375 364.28125 450.9375 376.851562 Z M 608.71875 374.265625 C 611.71875 375.246094 616.96875 377.832031 620.4375 379.882812 C 630.46875 385.855469 681.46875 420.890625 681.5625 421.78125 C 681.5625 422.050781 678.09375 422.765625 673.875 423.386719 C 669.5625 424.011719 659.4375 426.0625 651.375 428.023438 C 588.65625 443 535.125 473.847656 510.46875 509.152344 C 483.84375 547.222656 485.4375 594.117188 514.6875 633.699219 C 520.96875 642.167969 537.1875 658.128906 547.40625 665.972656 C 559.5 675.066406 574.875 684.605469 586.78125 690.402344 C 592.59375 693.253906 597 695.839844 596.625 696.285156 C 596.15625 696.640625 581.25 702.972656 563.4375 710.371094 C 475.875 746.65625 427.59375 766.894531 379.21875 787.488281 C 338.4375 804.785156 333.75 806.476562 322.125 807.816406 C 307.59375 809.507812 296.25 807.011719 284.15625 799.347656 C 273.46875 792.570312 264 783.386719 236.90625 753.523438 C 222.84375 738.007812 207.84375 721.515625 203.53125 716.878906 C 199.21875 712.15625 189.65625 701.457031 182.34375 693.164062 C 155.71875 663.03125 120.46875 623.269531 106.59375 607.667969 C 81.5625 579.582031 79.6875 577.355469 74.625 570.132812 C 68.71875 561.753906 67.125 557.5625 67.78125 552.214844 C 68.4375 546.152344 70.5 544.011719 80.15625 539.734375 C 88.40625 535.988281 150.09375 514.679688 219.375 491.679688 C 236.15625 486.0625 284.0625 470.015625 325.78125 456.019531 C 367.59375 441.933594 416.90625 425.4375 435.46875 419.375 C 454.03125 413.222656 490.78125 401.011719 517.03125 392.273438 C 566.25 375.871094 572.71875 373.90625 580.125 372.660156 C 587.625 371.324219 602.625 372.214844 608.71875 374.265625 Z M 449.90625 401.097656 C 450.65625 401.546875 449.15625 401.992188 445.6875 402.257812 C 436.5 402.882812 429.375 408.855469 427.59375 417.324219 C 426.75 421.160156 426.75 421.160156 426.65625 418.128906 C 426.46875 411.53125 431.625 405.023438 439.6875 401.722656 C 443.34375 400.207031 447.9375 399.941406 449.90625 401.097656 Z M 454.96875 404.21875 C 458.90625 405.824219 462 409.035156 460.21875 409.660156 C 451.6875 412.511719 428.90625 419.910156 428.625 419.910156 C 427.78125 419.910156 429.65625 414.828125 431.8125 411.261719 C 435.9375 404.488281 447.1875 401.097656 454.96875 404.21875 Z M 186.375 418.484375 C 197.90625 425.347656 213.46875 425.972656 226.21875 420.089844 L 231.5625 417.503906 L 231.5625 467.964844 L 226.40625 467.964844 C 222.46875 467.964844 220.125 468.5 217.03125 470.191406 C 210.09375 474.117188 206.90625 479.554688 205.78125 489.628906 C 205.21875 494.621094 205.125 494.710938 201.28125 496.046875 C 190.125 499.96875 184.21875 501.84375 183.9375 501.484375 C 182.4375 500.058594 181.875 489.09375 181.875 455.304688 C 181.875 433.90625 182.0625 416.34375 182.34375 416.34375 C 182.625 416.34375 184.5 417.324219 186.375 418.484375 Z M 687.5625 425.707031 L 690.375 427.84375 L 688.03125 428.292969 C 686.8125 428.558594 682.59375 429.183594 678.75 429.808594 C 659.53125 432.570312 626.15625 442.109375 604.21875 451.113281 C 570.46875 464.84375 542.8125 484.367188 524.625 507.28125 C 517.40625 516.375 509.625 531.621094 506.53125 542.496094 C 504.375 550.429688 504 553.105469 504 566.566406 C 503.90625 582.527344 504.5625 587.160156 508.78125 599.554688 C 517.03125 623.894531 534.5625 645.734375 561.28125 664.8125 C 573.84375 673.820312 591.75 684.25 602.0625 688.617188 L 608.625 691.382812 L 604.125 693.253906 L 599.53125 695.125 L 591.375 691.292969 C 578.4375 685.140625 568.125 678.988281 555.75 670.253906 C 514.03125 640.742188 493.125 606.152344 493.125 567.011719 C 493.125 540.980469 502.875 517.800781 522.9375 496.226562 C 552.75 464.128906 608.0625 437.296875 668.4375 425.707031 C 682.21875 423.03125 684.1875 423.03125 687.5625 425.707031 Z M 717.9375 446.65625 L 738 460.476562 L 731.53125 461.632812 C 707.625 465.914062 684.1875 472.511719 663.28125 480.980469 C 624.375 496.671875 593.25 521.722656 578.625 549.003906 C 569.8125 565.320312 566.4375 577 565.59375 593.847656 C 564.9375 606.6875 566.25 616.226562 570.5625 628.527344 C 577.6875 648.765625 591 666.597656 609.84375 680.949219 C 613.5 683.714844 616.78125 686.210938 617.25 686.65625 C 617.71875 687.011719 616.3125 688.082031 614.0625 689.0625 L 609.9375 690.847656 L 598.125 685.140625 C 559.78125 666.507812 531 641.546875 517.03125 614.710938 C 508.21875 597.683594 505.03125 585.023438 505.125 567.011719 C 505.125 532.332031 522.84375 503 559.5 476.703125 C 577.40625 463.953125 599.34375 453.253906 625.03125 444.785156 C 645.9375 438.007812 667.78125 432.570312 684.375 430.253906 C 692.0625 429.09375 692.4375 429.183594 695.15625 430.964844 C 696.75 432.035156 706.96875 439.078125 717.9375 446.65625 Z M 743.625 464.488281 C 747.09375 466.894531 747.1875 467.160156 745.21875 467.160156 C 739.03125 467.160156 708.84375 473.9375 693.9375 478.664062 C 656.625 490.339844 630 505.140625 609.375 525.734375 C 598.875 536.078125 593.15625 543.921875 586.78125 556.671875 C 565.6875 598.75 578.0625 643.863281 619.78125 676.761719 L 628.125 683.359375 L 624.28125 684.960938 C 622.21875 685.855469 619.875 686.390625 618.9375 686.121094 C 616.21875 685.230469 598.96875 670.253906 593.25 663.832031 C 580.3125 649.210938 572.4375 634.144531 568.5 616.671875 C 566.8125 609.09375 566.625 590.640625 568.125 581.632812 C 570.46875 567.460938 579.1875 548.203125 588.84375 535.71875 C 615 501.84375 663.28125 476.34375 723.5625 464.488281 C 730.59375 463.0625 737.15625 461.902344 738.09375 461.902344 C 738.9375 461.8125 741.46875 462.972656 743.625 464.488281 Z M 759.46875 475.1875 C 765.28125 479.199219 770.25 482.496094 770.34375 482.675781 C 770.4375 482.765625 764.34375 484.367188 756.75 486.152344 C 701.15625 499.257812 671.625 519.050781 659.90625 550.964844 C 658.21875 555.601562 657.75 559.078125 657.5625 568.527344 L 657.375 580.207031 L 653.625 585.023438 C 648.09375 591.976562 643.59375 600.265625 640.125 609.808594 C 637.125 618.007812 637.03125 618.632812 637.03125 632.988281 C 637.03125 646.714844 637.21875 648.144531 639.75 655.273438 C 641.15625 659.464844 643.78125 665.617188 645.5625 668.914062 L 648.75 674.976562 L 645.1875 676.402344 C 643.3125 677.117188 639 678.902344 635.71875 680.328125 L 629.8125 682.914062 L 624 678.542969 C 614.90625 671.679688 600.84375 657.324219 595.03125 648.945312 C 573.65625 618.367188 572.34375 583.953125 591.28125 550.964844 C 611.4375 515.660156 655.40625 488.378906 714.46875 474.292969 C 725.34375 471.707031 743.625 468.320312 747.375 468.144531 C 748.21875 468.054688 753.65625 471.261719 759.46875 475.1875 Z M 230.625 469.835938 C 231.65625 470.460938 231.09375 470.726562 228.28125 470.726562 C 226.21875 470.726562 222.84375 471.53125 220.78125 472.421875 C 213.9375 475.363281 210.375 480.625 207.84375 491.679688 C 207.5625 492.660156 207.375 492.035156 207.28125 490.253906 C 207 481.960938 212.53125 473.582031 220.3125 470.371094 C 224.0625 468.855469 228.5625 468.589844 230.625 469.835938 Z M 235.5 472.6875 C 239.0625 473.671875 247.5 479.910156 246.5625 480.800781 C 246.09375 481.160156 215.625 491.324219 211.3125 492.480469 C 209.34375 493.015625 209.34375 492.925781 210.09375 488.914062 C 212.625 476.253906 223.5 469.300781 235.5 472.6875 Z M 776.4375 486.507812 L 780.09375 488.824219 L 760.59375 493.460938 C 725.34375 501.933594 708 509.507812 692.25 523.507812 C 679.3125 535.097656 669.375 552.660156 669.375 564.070312 C 669.375 568.351562 670.125 568.796875 672.75 565.945312 C 676.03125 562.464844 691.3125 550.699219 697.78125 546.777344 C 725.25 529.835938 765.84375 517.980469 807.84375 514.769531 C 815.34375 514.144531 815.71875 514.234375 819.375 516.640625 C 821.4375 517.980469 823.03125 519.316406 822.75 519.496094 C 822.5625 519.671875 816.09375 520.476562 808.5 521.1875 C 765.09375 525.289062 731.0625 535.632812 702.65625 553.460938 C 692.15625 560.148438 672.65625 577.800781 671.625 581.8125 C 670.78125 584.933594 673.40625 593.582031 677.625 601.605469 C 684.1875 614.085938 698.71875 628.976562 714.1875 638.960938 C 721.875 643.953125 724.3125 644.933594 721.21875 641.632812 C 718.03125 638.425781 711.84375 626.835938 709.5 619.613281 C 706.96875 611.679688 706.59375 597.324219 708.65625 589.300781 C 710.53125 582.167969 714.75 573.074219 718.5 567.546875 C 733.6875 545.882812 771.75 529.390625 818.4375 524.21875 L 828.375 523.148438 L 832.875 526.09375 L 837.375 529.125 L 825.28125 530.191406 C 787.03125 533.757812 753.84375 545.527344 736.875 561.664062 C 724.78125 573.164062 719.15625 584.664062 718.3125 599.285156 C 718.03125 604.457031 718.3125 610.253906 719.0625 613.550781 C 720.375 619.96875 724.96875 629.957031 729.375 636.105469 C 731.0625 638.425781 732.1875 640.386719 732 640.476562 C 731.90625 640.566406 727.59375 642.347656 722.53125 644.398438 L 713.25 648.144531 L 706.125 643.507812 C 702.1875 641.011719 693.1875 633.433594 686.25 626.835938 C 673.125 614.265625 668.34375 607.933594 664.5 597.859375 L 662.4375 592.601562 L 660.65625 594.738281 C 657.65625 598.128906 652.78125 608.824219 650.625 616.492188 C 648.375 624.785156 647.90625 638.691406 649.6875 646.894531 C 650.90625 652.6875 654.65625 662.230469 657.375 666.417969 C 659.53125 669.894531 659.53125 670.164062 656.53125 671.589844 C 649.96875 674.800781 649.96875 674.800781 645.9375 666.6875 C 640.3125 655.1875 638.15625 646.09375 638.0625 633.433594 C 637.96875 615.066406 643.5 599.910156 656.15625 583.953125 C 658.40625 581.011719 658.59375 580.207031 658.6875 570.578125 C 658.78125 559.882812 659.53125 556.046875 663.375 546.597656 C 672.65625 524.128906 697.125 505.410156 731.4375 494.355469 C 741 491.324219 768.65625 484.28125 771.46875 484.191406 C 772.21875 484.101562 774.46875 485.171875 776.4375 486.507812 Z M 795.84375 500.058594 C 803.34375 505.320312 810.46875 510.222656 811.6875 510.9375 C 814.875 512.808594 814.21875 513.523438 809.15625 513.523438 C 797.90625 513.523438 767.8125 518.425781 751.40625 522.882812 C 721.6875 530.996094 696.375 543.746094 677.15625 560.328125 L 670.125 566.390625 L 670.78125 562.019531 C 672.375 551.589844 679.5 538.394531 688.78125 528.765625 C 699.65625 517.265625 714.9375 508.441406 735.65625 501.574219 C 745.21875 498.453125 776.0625 490.789062 780.84375 490.429688 C 781.5 490.429688 788.25 494.710938 795.84375 500.058594 Z M 825.9375 521.457031 C 825.9375 521.8125 822.84375 522.527344 819.1875 522.882812 C 777.65625 526.714844 738.5625 542.140625 721.59375 561.484375 C 715.78125 568.082031 710.15625 578.871094 707.71875 588.320312 C 703.78125 603.210938 706.59375 622.019531 714.46875 634.234375 C 715.96875 636.640625 717.09375 638.691406 716.90625 638.960938 C 716.0625 639.761719 703.96875 630.402344 696.28125 623 C 684 611.054688 676.96875 600.179688 673.59375 588.054688 C 671.90625 581.546875 671.71875 581.722656 684.1875 569.867188 C 711.28125 544.011719 753 528.054688 807.75 522.527344 C 816.9375 521.632812 824.8125 520.832031 825.28125 520.742188 C 825.65625 520.652344 825.9375 521.011719 825.9375 521.457031 Z M 857.15625 543.476562 C 874.21875 555.78125 881.25 561.574219 881.25 563.269531 C 881.25 563.714844 876.28125 564.339844 870.28125 564.695312 C 839.90625 566.300781 812.625 572.898438 794.25 583.238281 C 786.75 587.339844 774.5625 599.199219 770.8125 605.972656 C 767.90625 611.234375 763.59375 624.785156 764.53125 625.675781 C 765.1875 626.390625 765.375 626.03125 767.15625 619.257812 C 775.3125 588.320312 807.28125 571.292969 866.71875 566.121094 C 881.8125 564.785156 882.1875 564.875 882.1875 567.28125 C 882.1875 571.382812 880.59375 572.007812 867.1875 573.164062 C 835.6875 575.839844 811.125 583.148438 795.84375 594.203125 C 786.9375 600.800781 782.25 607.132812 778.96875 616.9375 L 777.375 621.84375 L 755.71875 630.667969 L 733.96875 639.582031 L 731.71875 637 C 725.0625 629.152344 719.0625 613.371094 719.0625 603.65625 C 719.15625 588.855469 727.6875 570.757812 739.3125 560.683594 C 748.59375 552.839844 762.28125 546.0625 780.84375 540.265625 C 798 534.917969 816.09375 531.796875 837 530.550781 C 838.40625 530.460938 845.0625 534.738281 857.15625 543.476562 Z M 66.1875 553.371094 C 66.28125 563 70.21875 569.152344 94.21875 595.988281 C 102.46875 605.261719 115.96875 620.503906 124.21875 629.867188 C 157.3125 667.398438 200.625 716.078125 209.53125 725.707031 C 214.6875 731.324219 227.90625 745.765625 238.78125 757.800781 C 249.65625 769.835938 261.65625 782.585938 265.40625 786.242188 C 278.4375 798.632812 291.375 806.476562 302.71875 808.707031 C 310.40625 810.222656 327.09375 809.242188 335.15625 806.835938 C 338.8125 805.765625 357.5625 798.097656 376.875 789.894531 C 411.84375 775.007812 432.84375 766.179688 483.75 745.050781 C 511.875 733.371094 539.15625 722.050781 582.65625 703.863281 C 612.1875 691.558594 645 678.007812 687.1875 660.625 C 702.9375 654.117188 733.6875 641.367188 755.625 632.273438 C 777.5625 623.269531 810.28125 609.894531 828.28125 602.585938 C 846.375 595.273438 864.65625 587.609375 869.0625 585.558594 C 876.09375 582.082031 877.40625 581.097656 880.125 576.820312 C 882.9375 572.453125 883.21875 571.382812 882.9375 566.746094 L 882.5625 561.664062 L 886.03125 564.875 C 896.8125 574.859375 897.28125 587.074219 887.34375 595.453125 C 882.84375 599.199219 877.6875 601.515625 847.96875 613.640625 C 834.09375 619.257812 812.34375 628.171875 799.6875 633.433594 C 787.03125 638.691406 763.03125 648.589844 746.25 655.453125 C 729.5625 662.316406 708.1875 671.144531 698.90625 675.066406 C 689.625 678.988281 662.25 690.402344 637.96875 700.296875 C 613.78125 710.28125 578.53125 724.902344 559.6875 732.839844 C 325.875 831.621094 340.59375 825.558594 330.375 827.964844 C 320.53125 830.191406 305.15625 830.015625 295.78125 827.519531 C 272.53125 821.1875 262.21875 812.898438 224.4375 769.835938 C 203.8125 746.300781 164.15625 701.546875 156.5625 693.164062 C 152.15625 688.261719 143.0625 678.007812 136.40625 670.429688 C 129.75 662.851562 119.15625 650.996094 112.96875 644.128906 C 93.46875 622.734375 66.5625 591.796875 61.78125 585.378906 C 54.1875 575.125 52.78125 567.191406 57.09375 558.722656 C 58.6875 555.601562 65.15625 547.398438 66 547.398438 C 66.09375 547.398438 66.1875 550.074219 66.1875 553.371094 Z M 880.3125 574.144531 C 880.3125 575.839844 874.3125 581.457031 870.5625 583.238281 C 868.40625 584.308594 847.78125 592.867188 824.53125 602.40625 C 801.375 611.945312 781.78125 619.96875 781.03125 620.238281 C 779.15625 621.039062 780.28125 616.046875 783.28125 610.253906 C 792.46875 592.511719 819.375 579.941406 857.53125 575.570312 C 878.4375 573.164062 880.3125 572.988281 880.3125 574.144531 Z M 81.1875 610.699219 C 90.84375 621.753906 103.875 636.375 110.15625 643.238281 C 116.4375 650.105469 128.0625 663.121094 136.03125 672.214844 C 144 681.308594 157.5 696.554688 166.03125 706.09375 C 174.5625 715.632812 191.625 734.886719 203.90625 748.886719 C 238.96875 788.648438 252.84375 803.714844 260.15625 810.222656 C 275.625 823.773438 295.03125 831.261719 314.53125 831.085938 C 330.09375 831.085938 335.8125 829.125 388.125 806.835938 C 402.84375 800.503906 423.75 791.679688 434.53125 787.222656 C 470.625 772.15625 501.65625 759.050781 548.90625 739.078125 C 574.6875 728.203125 616.03125 710.90625 640.78125 700.742188 C 665.53125 690.578125 689.8125 680.503906 694.6875 678.453125 C 708 672.839844 797.8125 635.839844 840 618.542969 C 880.78125 601.871094 885.09375 599.820312 890.0625 594.652344 C 891.9375 592.6875 893.4375 591.621094 893.4375 592.15625 C 893.4375 592.777344 892.40625 599.734375 891.1875 607.578125 C 889.875 615.421875 888.375 626.746094 887.71875 632.808594 C 886.78125 642.257812 886.3125 644.128906 884.15625 646.714844 C 879.28125 652.6875 871.40625 656.878906 835.96875 672.480469 C 816.28125 681.128906 777.375 698.15625 749.53125 710.371094 C 721.6875 722.585938 683.71875 739.347656 665.15625 747.546875 C 646.59375 755.75 619.21875 767.785156 604.21875 774.292969 C 589.3125 780.800781 565.40625 791.234375 551.25 797.472656 C 537.09375 803.714844 523.40625 809.6875 520.78125 810.847656 C 513.375 814.144531 505.3125 817.621094 450.46875 841.605469 C 422.15625 853.996094 387.9375 868.886719 374.53125 874.769531 C 338.4375 890.550781 332.34375 892.777344 320.71875 894.117188 C 306.28125 895.898438 292.40625 892.511719 282.75 884.933594 C 273.46875 877.710938 264.5625 867.90625 194.90625 788.558594 C 160.5 749.332031 85.21875 663.121094 75.75 651.976562 C 72.28125 647.964844 67.40625 641.722656 64.78125 638.066406 L 60.09375 631.472656 L 58.21875 613.285156 C 57.1875 603.296875 56.0625 591.441406 55.78125 587.074219 L 55.125 579.050781 L 59.34375 584.84375 C 61.6875 588.054688 71.4375 599.644531 81.1875 610.699219 Z M 666.46875 604.902344 C 673.5 618.097656 689.53125 634.414062 705.28125 644.398438 C 709.96875 647.429688 711.28125 648.675781 710.34375 649.210938 C 707.53125 650.640625 661.875 669.539062 661.03125 669.539062 C 659.625 669.539062 653.4375 655.453125 651.46875 647.429688 C 649.21875 638.515625 649.40625 625.855469 652.03125 616.492188 C 653.4375 611.679688 660.9375 595.1875 661.5 595.808594 C 661.59375 595.898438 663.84375 600 666.46875 604.902344 Z M 64.875 640.832031 C 66.75 643.597656 84.46875 664.367188 104.0625 686.925781 C 160.3125 751.472656 201.28125 798.367188 210.46875 808.617188 C 215.15625 813.789062 227.53125 827.875 238.125 839.910156 C 275.0625 881.8125 279.84375 886.449219 291.1875 891.53125 C 304.875 897.769531 321.84375 897.503906 340.21875 890.726562 C 344.15625 889.300781 362.53125 881.457031 381.09375 873.433594 C 442.40625 846.777344 494.90625 823.863281 538.125 804.875 C 561.5625 794.53125 588.375 782.765625 597.65625 778.75 C 622.03125 768.144531 635.625 762.167969 665.15625 749.0625 C 698.625 734.265625 692.71875 736.851562 785.625 696.105469 C 829.21875 677.027344 867.75 659.910156 871.40625 658.128906 C 874.96875 656.253906 879.75 653.222656 881.90625 651.175781 C 884.15625 649.210938 885.9375 648.054688 885.9375 648.675781 C 885.9375 653.402344 881.71875 671.679688 879.75 675.511719 C 874.59375 685.585938 868.96875 688.527344 768.28125 733.285156 C 723.84375 752.988281 647.15625 787.132812 635.625 792.304688 C 615.75 801.21875 599.71875 808.261719 565.78125 823.148438 C 546.1875 831.707031 523.875 841.695312 516.09375 845.171875 C 508.40625 848.738281 486 858.722656 466.40625 867.460938 C 422.34375 887.074219 401.25 896.613281 374.0625 908.914062 C 334.125 927.011719 329.15625 928.527344 313.125 927.816406 C 306.9375 927.546875 300.9375 926.65625 297 925.496094 C 289.125 923.089844 278.25 916.226562 271.875 909.628906 C 265.40625 902.851562 242.4375 876.640625 203.8125 831.796875 C 120.65625 735.246094 85.40625 694.324219 79.6875 687.816406 C 66.5625 672.839844 64.96875 670.429688 63.84375 662.230469 C 61.59375 647.339844 60.375 635.660156 60.84375 635.660156 C 61.125 635.75 63 638.066406 64.875 640.832031 Z M 64.875 640.832031 "/>
<path style=" stroke:none;fill-rule:nonzero;fill:rgb(0%,0%,0%);fill-opacity:1;" d="M 577.875 391.828125 C 568.875 393.699219 560.8125 398.246094 563.0625 400.207031 C 564.5625 401.632812 577.96875 404.753906 582.46875 404.753906 C 588.09375 404.753906 590.0625 402.4375 589.125 396.640625 C 588.09375 390.042969 587.53125 389.777344 577.875 391.828125 Z M 586.78125 395.839844 C 588.375 401.011719 587.0625 402.972656 581.90625 402.972656 C 576.75 402.972656 565.21875 400.117188 565.59375 398.960938 C 566.15625 397.445312 571.875 394.679688 576.9375 393.523438 C 584.90625 391.648438 585.46875 391.828125 586.78125 395.839844 Z M 586.78125 395.839844 "/>
<path style=" stroke:none;fill-rule:nonzero;fill:rgb(0%,0%,0%);fill-opacity:1;" d="M 598.5 395.570312 C 598.96875 398.78125 598.6875 400.566406 597.46875 402.703125 C 595.03125 406.984375 596.71875 408.320312 604.6875 408.320312 C 608.53125 408.320312 613.03125 409.035156 616.40625 410.105469 C 623.625 412.421875 625.3125 412.421875 625.3125 409.835938 C 625.3125 404.664062 618.375 398.78125 606.65625 394.054688 C 597.9375 390.492188 597.75 390.492188 598.5 395.570312 Z M 608.90625 396.820312 C 612.28125 398.335938 616.3125 400.566406 617.90625 401.8125 C 620.625 404.042969 624 409.035156 623.15625 409.746094 C 622.96875 409.925781 620.0625 409.300781 616.78125 408.320312 C 613.40625 407.339844 608.15625 406.539062 604.78125 406.539062 C 599.0625 406.539062 598.875 406.449219 599.53125 404.488281 C 600 403.417969 600.375 400.652344 600.375 398.246094 C 600.46875 395.570312 600.84375 394.054688 601.59375 394.054688 C 602.25 394.054688 605.53125 395.304688 608.90625 396.820312 Z M 608.90625 396.820312 "/>
<path style=" stroke:none;fill-rule:nonzero;fill:rgb(0%,0%,0%);fill-opacity:1;" d="M 559.6875 409.125 C 559.6875 411.621094 560.4375 413.492188 562.125 415.363281 C 565.125 418.75 578.53125 425.171875 583.96875 425.882812 C 587.625 426.328125 588 426.242188 587.53125 424.726562 C 585.75 419.285156 585.84375 418.21875 587.90625 414.738281 C 589.125 412.6875 589.875 410.90625 589.5 410.550781 C 589.21875 410.28125 586.03125 410.015625 582.5625 410.015625 C 578.625 410.015625 573.1875 409.210938 568.3125 407.785156 C 564 406.628906 560.25 405.644531 560.0625 405.644531 C 559.875 405.644531 559.6875 407.25 559.6875 409.125 Z M 582.46875 411.351562 C 585.9375 410.90625 586.875 411.085938 586.875 412.15625 C 586.875 412.867188 586.21875 414.027344 585.375 414.652344 C 584.25 415.542969 583.96875 416.878906 584.34375 420.179688 C 584.71875 424.457031 584.71875 424.457031 582.28125 423.921875 C 580.96875 423.566406 576.9375 422.050781 573.28125 420.445312 C 566.25 417.324219 561.5625 413.046875 561.5625 409.660156 L 561.5625 407.519531 L 569.8125 409.746094 C 575.8125 411.351562 579.1875 411.796875 582.46875 411.351562 Z M 582.46875 411.351562 "/>
<path style=" stroke:none;fill-rule:nonzero;fill:rgb(0%,0%,0%);fill-opacity:1;" d="M 599.34375 413.402344 C 597 413.847656 595.78125 418.664062 596.71875 423.832031 C 597.375 427.042969 597.375 427.042969 602.34375 427.042969 C 608.625 427.042969 615.9375 424.8125 619.875 421.695312 C 622.40625 419.644531 622.6875 419.019531 621.75 417.859375 C 619.78125 415.71875 603.9375 412.511719 599.34375 413.402344 Z M 614.8125 416.789062 C 617.4375 417.59375 619.6875 418.574219 619.6875 419.019531 C 619.6875 421.515625 602.71875 427.308594 600.09375 425.707031 C 598.5 424.8125 597.9375 419.644531 599.0625 416.878906 C 600 414.382812 600.1875 414.382812 604.96875 414.828125 C 607.59375 415.1875 612.09375 416.078125 614.8125 416.789062 Z M 614.8125 416.789062 "/>
<path style=" stroke:none;fill-rule:nonzero;fill:rgb(0%,0%,0%);fill-opacity:1;" d="M 350.625 678.453125 C 349.5 679.167969 350.0625 680.058594 353.90625 683.804688 C 358.96875 688.617188 358.875 688.617188 360.9375 687.371094 C 362.0625 686.65625 361.5 685.765625 357.65625 682.019531 C 352.59375 677.207031 352.6875 677.207031 350.625 678.453125 Z M 350.625 678.453125 "/>
<path style=" stroke:none;fill-rule:nonzero;fill:rgb(0%,0%,0%);fill-opacity:1;" d="M 360.75 678.277344 C 355.3125 678.902344 358.78125 682.019531 364.875 682.019531 C 368.53125 682.019531 369.9375 682.464844 371.71875 684.25 C 374.71875 687.011719 374.625 687.90625 371.25 690.9375 C 366.09375 695.484375 355.59375 696.640625 351.46875 693.074219 C 349.3125 691.203125 349.21875 689.332031 351.1875 686.566406 C 352.21875 685.230469 352.40625 684.25 351.75 683.625 C 350.0625 682.019531 347.34375 683.359375 345.46875 686.746094 C 343.78125 689.777344 343.6875 690.222656 345 692.453125 C 348.5625 698.335938 357 700.386719 366.84375 697.710938 C 376.875 694.949219 381.375 688.171875 376.875 682.644531 C 374.25 679.523438 366.65625 677.472656 360.75 678.277344 Z M 360.75 678.277344 "/>
<path style=" stroke:none;fill-rule:nonzero;fill:rgb(0%,0%,0%);fill-opacity:1;" d="M 308.8125 694.859375 C 304.125 696.820312 299.15625 701.546875 298.03125 705.199219 C 295.59375 712.957031 303.84375 720.089844 313.875 719.109375 C 326.0625 717.769531 334.5 709.210938 331.59375 700.921875 C 329.8125 695.929688 325.5 693.609375 317.90625 693.609375 C 314.53125 693.699219 310.40625 694.234375 308.8125 694.859375 Z M 322.96875 695.484375 C 329.625 697.085938 332.625 703.0625 329.625 708.589844 C 324.1875 718.484375 307.78125 720.890625 301.125 712.777344 C 296.25 706.894531 301.21875 698.871094 311.71875 695.75 C 316.5 694.324219 317.90625 694.324219 322.96875 695.484375 Z M 322.96875 695.484375 "/>
<path style=" stroke:none;fill-rule:nonzero;fill:rgb(0%,0%,0%);fill-opacity:1;" d="M 380.90625 705.113281 C 377.71875 706.984375 376.40625 709.570312 377.25 712.15625 C 377.71875 713.402344 376.96875 714.117188 374.53125 715.273438 C 368.90625 717.769531 368.90625 723.566406 374.53125 726.0625 C 378.75 728.023438 383.71875 727.132812 387.5625 723.832031 C 390 721.78125 390.1875 721.25 388.96875 720.800781 C 387.9375 720.445312 386.53125 721.070312 385.03125 722.496094 C 381 726.328125 373.125 725.171875 373.125 720.800781 C 373.125 718.394531 376.3125 715.898438 379.40625 715.898438 C 381.9375 715.898438 381.9375 715.808594 380.53125 712.867188 C 379.59375 711.085938 379.6875 710.191406 380.90625 708.5 C 382.6875 705.824219 386.0625 705.113281 390.1875 706.539062 C 391.875 707.074219 395.0625 707.339844 397.125 707.160156 C 400.125 706.894531 401.53125 707.25 403.59375 708.945312 C 405.84375 710.816406 406.03125 711.351562 405.09375 713.046875 C 403.96875 715.007812 402.9375 715.363281 398.25 715.007812 C 396.375 714.917969 395.625 715.273438 395.625 716.253906 C 395.625 718.128906 401.25 718.128906 405 716.34375 C 409.03125 714.382812 409.59375 710.996094 406.5 708.054688 C 404.625 706.179688 402.75 705.558594 398.15625 705.023438 C 394.96875 704.753906 390.46875 704.21875 388.125 703.863281 C 384.84375 703.417969 383.25 703.683594 380.90625 705.113281 Z M 380.90625 705.113281 "/>
<path style=" stroke:none;fill-rule:nonzero;fill:rgb(0%,0%,0%);fill-opacity:1;" d="M 386.71875 714.117188 C 385.96875 715.363281 387.375 717.59375 391.3125 721.160156 C 394.125 723.746094 394.78125 724.011719 396.09375 723.03125 C 397.40625 721.960938 397.125 721.335938 393.09375 717.503906 C 388.5 713.046875 387.65625 712.601562 386.71875 714.117188 Z M 386.71875 714.117188 "/>
<path style=" stroke:none;fill-rule:nonzero;fill:rgb(0%,0%,0%);fill-opacity:1;" d="M 333.84375 724.902344 C 321.9375 730.609375 320.34375 740.503906 330.5625 745.945312 C 341.53125 751.917969 359.0625 743.804688 359.0625 732.839844 C 359.0625 728.824219 357.09375 726.152344 352.5 723.921875 C 346.96875 721.25 340.875 721.605469 333.84375 724.902344 Z M 348.84375 723.921875 C 357.09375 726.0625 359.90625 734.085938 354.65625 740.058594 C 347.4375 748.261719 330.5625 748.441406 326.53125 740.328125 C 323.25 733.90625 329.53125 726.328125 340.03125 724.011719 C 344.90625 722.941406 345 722.941406 348.84375 723.921875 Z M 348.84375 723.921875 "/>
</g>
</svg>
