<?xml version="1.0" standalone="no"?>
<!DOCTYPE svg PUBLIC "-//W3C//DTD SVG 20010904//EN"
 "http://www.w3.org/TR/2001/REC-SVG-20010904/DTD/svg10.dtd">
<svg version="1.0" xmlns="http://www.w3.org/2000/svg"
 width="960.000000pt" height="960.000000pt" viewBox="0 0 960.000000 960.000000"
 preserveAspectRatio="xMidYMid meet">

<g transform="translate(0.000000,960.000000) scale(0.100000,-0.100000)"
fill="#000000" stroke="none">
<path d="M4450 9228 c-19 -7 -61 -38 -93 -70 l-57 -59 5 -1862 c4 -1024 8
-1877 11 -1894 6 -38 6 -38 87 -17 84 21 133 49 140 76 16 63 124 147 209 163
30 6 40 3 59 -18 13 -13 39 -34 57 -47 19 -12 30 -25 25 -29 -4 -4 -34 -15
-66 -26 -32 -10 -60 -22 -63 -27 -10 -16 49 -8 109 16 34 13 82 29 107 34 67
16 580 175 700 217 132 47 258 80 380 101 215 36 360 -20 736 -287 50 -36 116
-78 147 -94 32 -17 55 -35 53 -42 -3 -6 22 -25 54 -41 58 -30 305 -188 410
-262 30 -22 67 -42 82 -45 16 -4 33 -18 40 -33 8 -16 39 -40 78 -61 36 -19 98
-56 138 -83 41 -26 77 -48 82 -48 5 0 22 -11 37 -25 15 -14 73 -55 128 -92 55
-36 111 -76 125 -89 14 -12 41 -30 60 -38 20 -8 44 -23 54 -34 10 -11 42 -33
72 -48 35 -18 53 -32 50 -41 -4 -8 3 -13 17 -13 12 0 29 -9 37 -20 8 -11 21
-20 30 -20 8 0 107 -62 220 -138 143 -95 204 -142 202 -153 -2 -12 8 -19 32
-23 40 -8 78 -47 126 -130 29 -51 32 -64 28 -114 -4 -50 -9 -60 -44 -90 -46
-40 -163 -98 -294 -146 -107 -39 -806 -307 -945 -363 -104 -41 -438 -170 -735
-283 -113 -43 -288 -110 -390 -150 -102 -40 -286 -110 -410 -157 -198 -74
-547 -209 -725 -278 -33 -13 -157 -60 -275 -104 -118 -45 -242 -92 -275 -106
-33 -13 -157 -61 -275 -105 -118 -45 -303 -116 -410 -157 -487 -188 -760 -292
-820 -311 -108 -36 -208 -53 -345 -59 -265 -11 -412 39 -576 195 -97 91 -515
527 -828 861 -101 108 -268 284 -370 391 -102 107 -262 276 -356 375 -93 99
-222 234 -285 300 -125 130 -152 172 -152 242 0 51 28 123 48 123 6 0 24 -20
38 -43 35 -60 100 -131 465 -508 174 -179 536 -554 806 -835 768 -799 782
-812 969 -890 l86 -36 -6 -54 c-4 -34 -3 -54 3 -54 12 0 23 47 23 95 0 28 -5
34 -42 50 -110 46 -172 80 -235 129 -95 75 -1176 1183 -1935 1984 -94 98 -138
162 -138 198 0 31 90 105 174 144 75 35 267 100 788 265 114 36 210 71 214 77
14 22 -88 0 -286 -62 -107 -34 -267 -83 -355 -110 -335 -102 -430 -144 -537
-236 -73 -64 -115 -121 -124 -172 -4 -22 5 -126 25 -266 17 -127 40 -307 51
-401 39 -332 28 -312 400 -720 124 -136 269 -297 322 -356 53 -60 186 -207
295 -327 109 -119 254 -280 323 -357 280 -315 612 -675 693 -752 128 -123 265
-183 452 -198 158 -13 320 22 578 124 149 59 1012 407 1702 686 849 344 1191
482 1875 758 360 146 702 284 760 308 58 23 166 67 240 97 74 30 206 83 294
119 334 135 412 184 454 282 21 47 55 265 103 646 33 264 35 315 11 361 -41
80 -146 167 -432 358 -80 53 -172 117 -205 141 -33 24 -80 57 -105 72 -25 15
-82 53 -127 85 -45 32 -84 58 -88 58 -3 0 -51 32 -105 70 -54 39 -102 70 -105
70 -4 0 -45 28 -92 61 -85 60 -129 88 -188 117 -16 8 -109 68 -205 132 -234
156 -751 498 -872 577 -198 127 -259 148 -443 147 -123 0 -138 -2 -280 -43
-82 -23 -240 -71 -350 -106 -309 -98 -454 -142 -523 -160 l-63 -16 -55 32
c-34 19 -59 42 -66 58 -14 36 -26 695 -38 2166 -6 688 -15 1271 -19 1297 -10
59 -50 120 -101 154 -31 21 -55 27 -108 30 -37 2 -83 -2 -102 -8z m186 -51
c72 -50 82 -77 90 -247 l7 -145 -37 -17 c-44 -21 -180 -34 -259 -24 -89 11
-90 14 -85 197 4 153 4 157 31 193 38 49 90 75 153 76 43 0 60 -6 100 -33z
m96 -452 c0 -6 -12 -19 -26 -30 -22 -16 -47 -20 -131 -23 -126 -5 -186 3 -217
28 -33 27 -17 34 44 19 69 -17 211 -15 268 4 49 16 61 17 62 2z m-338 -100
c62 -19 214 -19 283 -1 57 15 70 10 49 -19 -16 -22 -84 -34 -196 -34 -97 0
-183 23 -188 52 -4 20 -8 20 52 2z m333 -512 c-4 -252 -7 -614 -7 -805 l0
-346 -37 -13 c-49 -17 -240 -17 -270 -1 -13 7 -27 22 -34 33 -12 23 -30 1173
-21 1427 l5 154 26 -6 c65 -16 207 -17 266 -3 33 9 64 16 69 16 6 1 7 -182 3
-456z m-287 -1198 c69 -19 129 -19 205 0 33 8 65 14 71 15 7 0 14 -124 23
-377 6 -208 13 -396 14 -418 2 -39 1 -40 -48 -58 -99 -37 -281 -32 -327 10
-17 15 -18 40 -17 317 0 166 4 342 9 391 4 51 4 94 -1 100 -13 13 -11 35 4 35
6 0 37 -7 67 -15z m327 -862 c10 -29 -120 -73 -212 -73 -92 0 -236 52 -212 77
4 3 31 -1 61 -10 75 -24 236 -22 296 3 48 20 61 21 67 3z m-19 -253 l-3 -183
-41 -12 c-64 -19 -130 -70 -175 -136 -40 -59 -66 -78 -134 -95 -20 -5 -26 -4
-21 5 4 6 0 21 -8 33 -9 12 -16 31 -16 41 0 17 2 17 30 -3 48 -34 57 -18 17
27 l-37 40 0 219 c0 121 4 225 9 233 7 11 17 12 54 2 74 -18 225 -14 272 8 22
10 43 15 48 11 4 -3 6 -89 5 -190z m-3862 -2405 c110 -116 267 -283 349 -370
83 -88 287 -304 455 -480 168 -176 418 -439 556 -585 302 -318 309 -325 404
-389 111 -77 198 -101 385 -108 311 -12 394 10 1105 287 259 101 704 272 930
357 80 30 232 88 337 129 106 41 282 108 390 150 109 42 268 103 353 136 85
34 241 93 345 133 105 40 442 169 750 288 308 118 715 274 905 347 678 259
745 285 827 325 l83 41 0 -46 c0 -25 -12 -124 -26 -220 -14 -96 -27 -195 -29
-220 -5 -72 -23 -194 -34 -222 -25 -66 -99 -113 -321 -205 -47 -19 -110 -45
-140 -58 -30 -13 -149 -61 -265 -108 -115 -46 -365 -148 -555 -225 -321 -130
-862 -348 -1470 -592 -140 -56 -334 -135 -430 -175 -96 -40 -305 -126 -465
-190 -159 -64 -407 -164 -550 -222 -1440 -582 -1437 -581 -1644 -570 -194 10
-323 67 -461 206 -197 197 -1857 2041 -1915 2126 -34 50 -71 155 -55 155 4 0
50 -47 102 -104 51 -58 228 -252 393 -432 165 -180 377 -411 470 -514 94 -102
228 -249 299 -325 71 -77 217 -237 325 -355 348 -382 380 -410 554 -475 86
-32 61 -8 -45 44 -148 72 -119 44 -779 761 -229 250 -759 827 -953 1039 -340
372 -427 481 -387 481 5 0 180 -185 388 -412 361 -393 435 -474 778 -849 82
-90 208 -227 280 -304 71 -77 219 -237 327 -355 108 -118 218 -231 245 -252
64 -48 177 -104 255 -125 76 -21 292 -24 383 -4 121 25 121 25 1355 516 212
84 529 210 705 280 176 70 448 178 605 240 157 62 413 164 570 225 157 62 402
160 545 218 143 58 303 122 355 142 287 112 594 234 655 260 39 16 205 83 370
148 316 125 389 158 443 199 51 38 31 38 -39 -1 -56 -31 -1455 -593 -2464
-991 -192 -76 -404 -160 -470 -187 -66 -27 -210 -84 -320 -128 -492 -193
-1333 -526 -1540 -610 -650 -263 -771 -302 -955 -303 -134 0 -208 16 -320 70
-65 31 -95 56 -226 187 -142 142 -519 549 -1119 1206 -143 156 -300 327 -350
380 -309 327 -441 478 -453 516 -15 52 -52 297 -52 349 l0 40 29 -30 c15 -17
118 -125 227 -240z"/>
<path d="M4426 6861 c-11 -17 169 -29 221 -15 13 4 20 10 17 15 -7 12 -231 12
-238 0z"/>
<path d="M8873 3050 c-77 -37 -706 -292 -1048 -425 -88 -34 -297 -117 -465
-184 -335 -134 -698 -278 -1300 -516 -217 -86 -415 -164 -440 -175 -62 -27
-676 -271 -840 -335 -74 -29 -225 -89 -335 -133 -110 -44 -288 -115 -395 -157
-107 -42 -267 -105 -355 -140 -88 -35 -203 -76 -255 -90 -106 -30 -149 -50
-85 -40 96 14 247 68 660 232 242 96 476 188 520 205 43 16 84 33 90 37 5 5
66 29 135 56 69 26 217 84 330 129 113 46 277 111 365 146 395 154 748 294
845 335 58 24 267 107 465 186 827 326 1144 452 1220 484 44 19 157 63 250
100 94 36 211 82 260 102 50 20 146 58 215 84 138 54 244 105 261 126 19 22
-9 14 -98 -27z"/>
<path d="M2017 8736 c-80 -22 -150 -90 -168 -162 -14 -58 1 -4000 15 -4019 9
-13 23 -11 96 12 93 29 118 46 155 109 45 76 143 143 210 144 20 0 48 -13 83
-39 28 -22 57 -41 64 -43 16 -6 0 -28 -20 -28 -28 0 -292 -83 -292 -92 0 -16
61 -7 179 27 66 19 139 44 160 55 22 11 46 20 53 20 14 0 274 78 383 115 39
13 140 45 225 70 157 47 570 175 934 289 185 58 244 86 183 86 -23 0 -222 -58
-542 -158 -559 -176 -1076 -333 -1181 -361 -38 -10 -45 -9 -102 25 l-60 36 -6
111 c-17 335 -39 1810 -48 3237 -3 384 -4 396 -25 436 -31 59 -93 110 -154
128 -62 19 -78 19 -142 2z m136 -32 c48 -16 110 -75 127 -120 6 -14 10 -97 10
-184 l0 -158 -47 -19 c-69 -26 -252 -26 -311 1 l-42 19 -2 91 c-5 222 4 267
64 321 71 65 120 77 201 49z m-197 -519 c105 -32 152 -30 322 12 42 10 22 -28
-23 -45 -51 -19 -263 -22 -322 -4 -46 14 -79 52 -45 52 10 0 41 -7 68 -15z
m179 -85 c4 -6 -12 -10 -39 -10 -25 0 -46 5 -46 10 0 6 18 10 39 10 22 0 43
-4 46 -10z m-171 -22 c62 -13 260 -5 303 13 39 16 53 6 29 -20 -24 -27 -98
-41 -209 -41 -103 1 -173 13 -199 37 -20 18 -13 37 10 28 10 -3 39 -11 66 -17z
m103 -75 c73 -4 128 -2 159 6 25 7 49 9 53 6 11 -12 21 -880 15 -1297 l-7
-407 -46 -18 c-66 -26 -232 -24 -287 3 l-39 19 -6 150 c-10 239 -23 1521 -15
1540 5 13 13 16 34 11 15 -4 77 -9 139 -13z m233 -1744 c0 -35 -55 -49 -187
-49 -65 0 -134 5 -154 10 -36 10 -67 35 -57 46 3 3 46 -2 94 -12 96 -18 184
-14 250 10 52 19 54 19 54 -5z m-230 -75 c76 -5 108 -3 158 11 34 10 64 16 66
14 3 -2 9 -121 15 -264 6 -143 14 -326 17 -407 l7 -148 -59 -27 c-53 -25 -70
-28 -159 -27 -81 0 -112 5 -164 25 l-63 25 2 239 c1 260 14 550 25 576 5 15
10 15 33 4 15 -8 70 -17 122 -21z m266 -849 c-3 -9 -27 -26 -53 -38 -41 -19
-66 -22 -168 -22 -124 0 -197 16 -226 51 -21 25 -2 27 65 4 95 -31 228 -30
316 3 36 14 67 23 69 21 2 -2 1 -10 -3 -19z m-11 -99 c4 -24 5 -111 3 -194 -3
-170 -3 -168 -80 -196 -72 -26 -126 -71 -170 -141 -35 -57 -46 -67 -94 -85
-69 -25 -76 -25 -69 3 4 15 1 28 -9 36 -16 13 -22 51 -9 51 4 0 20 -12 35 -27
l28 -27 0 24 c0 13 -12 37 -27 52 -25 26 -28 37 -34 141 -4 61 -8 176 -8 255
-1 159 -5 151 75 127 70 -21 225 -19 289 4 28 10 53 19 57 20 4 0 10 -19 13
-43z"/>
<path d="M8905 3855 c-15 -14 -24 -29 -21 -33 4 -3 19 6 33 21 15 14 24 29 21
33 -4 3 -19 -6 -33 -21z"/>
<path d="M8435 3656 c-27 -14 -43 -25 -35 -25 20 0 119 47 100 48 -8 0 -37
-10 -65 -23z"/>
<path d="M8235 3575 c-23 -10 -25 -14 -10 -14 21 -1 52 15 45 23 -3 2 -18 -2
-35 -9z"/>
<path d="M7942 3454 c-21 -15 -30 -34 -14 -34 4 0 18 9 31 19 29 22 13 36 -17
15z"/>
<path d="M7723 3389 c-25 -9 -30 -19 -10 -19 15 0 43 17 37 23 -3 3 -15 1 -27
-4z"/>
<path d="M7597 3336 c-60 -25 -87 -43 -87 -57 0 -12 30 1 66 28 17 13 37 23
46 23 8 0 23 7 34 15 28 21 7 18 -59 -9z"/>
<path d="M7304 3225 c-10 -8 -14 -15 -8 -15 5 0 19 7 30 15 10 8 14 15 8 15
-5 0 -19 -7 -30 -15z"/>
<path d="M7191 3184 c-19 -8 -31 -17 -28 -20 3 -3 25 3 49 14 49 23 30 29 -21
6z"/>
<path d="M7010 3116 c-124 -46 -231 -97 -215 -103 6 -2 73 24 148 57 75 33
146 60 157 60 17 0 37 17 29 25 -2 2 -56 -16 -119 -39z"/>
<path d="M6542 2940 c-75 -29 -102 -46 -102 -61 0 -14 26 -10 40 5 6 8 43 27
81 42 67 26 95 45 67 43 -7 0 -46 -13 -86 -29z"/>
<path d="M6245 2826 c-34 -15 -65 -42 -65 -57 0 -10 84 34 110 58 13 11 13 13
0 13 -8 -1 -29 -7 -45 -14z"/>
<path d="M5770 2650 c-129 -48 -350 -131 -490 -185 -422 -161 -869 -330 -1150
-436 -146 -55 -299 -113 -340 -129 -41 -16 -135 -52 -207 -80 -163 -62 -221
-89 -228 -108 -7 -20 2 -27 17 -14 17 14 117 54 403 162 132 50 299 114 370
142 72 28 159 61 195 73 36 13 137 51 225 85 207 80 450 171 595 225 63 23
223 85 355 137 132 53 294 115 360 138 162 57 165 58 165 70 0 19 -34 9 -270
-80z"/>
<path d="M3910 2010 c-13 -8 -13 -10 2 -10 9 0 20 5 23 10 8 13 -5 13 -25 0z"/>
<path d="M3695 1930 c-3 -5 -1 -10 4 -10 6 0 11 5 11 10 0 6 -2 10 -4 10 -3 0
-8 -4 -11 -10z"/>
<path d="M3375 1810 c-7 -12 2 -12 30 0 19 8 19 9 -2 9 -12 1 -25 -3 -28 -9z"/>
<path d="M3293 1789 c-18 -5 -33 -14 -33 -19 0 -12 0 -12 39 1 17 6 31 15 31
20 0 5 -1 9 -2 8 -2 0 -18 -5 -35 -10z"/>
<path d="M3068 1753 c6 -2 18 -2 25 0 6 3 1 5 -13 5 -14 0 -19 -2 -12 -5z"/>
<path d="M3370 1641 c0 -11 5 -23 10 -26 6 -4 10 5 10 19 0 14 -4 26 -10 26
-5 0 -10 -9 -10 -19z"/>
</g>
</svg>
